<svg xmlns="http://www.w3.org/2000/svg" width="55.125" height="54.156" viewBox="0 0 55.125 54.156">
  <defs>
    <style>
      .cls-1 {
        fill: #04cacf;
        fill-rule: evenodd;
      }
    </style>
  </defs>
  <path id="NavWhalarIcon.svg" class="cls-1" d="M85.785,104.2c-1.072-4.7-4.321-18.988-4.8-21.4-0.576-2.9-.032-4.134,5.81-5.1s7.609-2.706,9.234-4.725a8.082,8.082,0,0,0,1.765-2.821,41.037,41.037,0,0,1-8.163.635c-5.356,0-8.232.372-9.379,1.182a8.579,8.579,0,0,0-1.791,1.884,8.572,8.572,0,0,0-1.791-1.884c-1.147-.81-4.022-1.182-9.379-1.182a41.037,41.037,0,0,1-8.163-.635,8.082,8.082,0,0,0,1.765,2.821c1.625,2.019,3.392,3.759,9.234,4.725s6.385,2.2,5.809,5.1c-0.482,2.43-3.767,16.871-4.82,21.487A27.563,27.563,0,1,1,85.785,104.2Z" transform="translate(-50.75 -50.125)"/>
</svg>
